<svg xmlns="http://www.w3.org/2000/svg" width="52" height="43" viewBox="0 0 52 43"><path fill="#FFF" fill-rule="evenodd" d="M42.536.125c2.433 0 4.644.989 6.247 2.581a8.723 8.723 0 0 1 0 12.42 8.844 8.844 0 0 1-6.247 2.582H27.413V.125h15.123Zm5.301 27.861a8.736 8.736 0 0 1 2.581 6.216c0 4.868-3.938 8.782-8.835 8.782a8.843 8.843 0 0 1-6.254-2.565l-10.695-10.63 9.223-9.167h6.571l7.409 7.364Zm-17.552-7.363H15.412l7.436 7.391 7.437-7.391ZM3.514 2.706A8.847 8.847 0 0 1 9.762.125h15.123v17.582H9.762a8.848 8.848 0 0 1-6.248-2.582 8.721 8.721 0 0 1 0-12.419Z"/></svg>