<svg xmlns="http://www.w3.org/2000/svg" width="47" height="50" viewBox="0 0 47 50"><path fill="#FFF" fill-rule="evenodd" d="M26.431.008c.576.026 1.075.557 1.048 1.115-.027.557-.575 1.041-1.151 1.014h-1.787v1.099c-.362-.016-.734-.033-1.099-.033-.371 0-.733.017-1.1.033V2.137H20.83c-.581.009-1.116-.501-1.116-1.064 0-.563.535-1.074 1.116-1.065h5.602-.001Zm10.155 4.443c2.027 1.134 2.965 2.521 2.44 4.277a24.423 24.423 0 0 0-7.337-4.127c1.58-1.357 3.354-1.001 4.897-.15Zm-21.374.133a24.454 24.454 0 0 0-7.354 4.144c-.527-1.755.409-3.132 2.337-4.211 1.713-.914 3.68-1.218 5.017.067Zm8.23-.316c12.753 0 23.092 10.013 23.092 22.365 0 12.352-10.339 22.365-23.092 22.365C10.688 48.998.35 38.985.35 26.633c0-12.352 10.338-22.365 23.092-22.365Zm.55 3.195h-1.1v2.13h1.1v-2.13Zm9.432 1.381-1.099 1.831.945.532 1.099-1.83-.945-.533Zm-19.948 0-.945.533 1.1 1.83.945-.532-1.1-1.831Zm10.103 3.944-2.097 11.881L9.146 26.5c4.743.644 9.609 1.792 14.295 2.363 1.275 0 2.32-.995 2.32-2.23-.703-4.566-1.456-9.242-2.183-13.845h.001Zm17.697 3.261-1.908 1.066.55.915 1.908-1.065-.55-.916Zm-35.651 0-.55.916 1.907 1.065.55-.915-1.907-1.066ZM44.335 26.1h-2.199v1.065h2.199V26.1Zm-39.586 0H2.55v1.065h2.199V26.1Zm35.171 9.12-.55.914 1.907 1.066.55-.916-1.907-1.064Zm-32.938 0-1.907 1.064.55.916 1.907-1.066-.55-.914Zm26.288 6.822-.945.532 1.1 1.848.945-.533-1.1-1.847Zm-19.638 0-1.099 1.847.945.533 1.099-1.848-.945-.532Zm10.36 2.696h-1.099v2.13h1.099v-2.13Zm12.577 1.564 1.151 1.931-1.89 1.065-1.151-1.93a24.593 24.593 0 0 0 1.89-1.066Zm-26.047.117a24.42 24.42 0 0 0 1.907 1.048l-1.099 1.831-1.89-1.065 1.082-1.814Z"/></svg>