<svg xmlns="http://www.w3.org/2000/svg" width="41" height="41" viewBox="0 0 41 41"><path fill="#FFF" fill-rule="evenodd" d="M38.231 40.781H2.747c-1.437 0-2.535-1.104-2.535-2.548V13.6h40.554v24.633c0 1.444-1.099 2.548-2.535 2.548Zm-.844-23.784H3.592v20.386h33.795V16.997ZM10.35 29.484H5.281v-4.672h5.069v4.672Zm0 6.2H5.281v-4.671h5.069v4.671ZM5.366 18.697h5.069v4.672H5.366v-4.672Zm11.406 4.672h-5.07v-4.672h5.07v4.672Zm0 6.2h-5.07v-4.672h5.07v4.672Zm0 6.2h-5.07v-4.671h5.07v4.671Zm6.251-12.4h-5.069v-4.672h5.069v4.672Zm0 6.2h-5.069v-4.672h5.069v4.672Zm0 6.2h-5.069v-4.671h5.069v4.671Zm6.337-12.4h-5.069v-4.672h5.069v4.672Zm0 6.2h-5.069v-4.672h5.069v4.672Zm0 6.2h-5.069v-4.671h5.069v4.671Zm6.336-12.4h-5.069v-4.672h5.069v4.672Zm0 6.2h-5.069v-4.672h5.069v4.672Zm0 6.2h-5.069v-4.671h5.069v4.671ZM.212 6.465c0-1.444 1.098-2.548 2.535-2.548h1.436v2.038c0 1.869 1.352 3.483 2.957 3.568 2.028.255 3.802-1.359 3.802-3.398V3.917h5.998v2.208c0 1.954 1.775 3.567 3.802 3.398 1.859-.17 3.126-1.784 3.126-3.568V3.917h5.999v2.038c0 1.784 1.352 3.398 3.126 3.568 2.028.255 3.802-1.359 3.802-3.398V3.917h1.436c1.436 0 2.535 1.189 2.535 2.548v5.436H.212V6.465Zm33.119 1.444c-.93 0-1.69-.765-1.775-1.699V1.793A1.79 1.79 0 0 1 33.331.009c1.013 0 1.774.85 1.774 1.784v4.332a1.79 1.79 0 0 1-1.774 1.784Zm-12.842 0c-.929 0-1.774-.765-1.774-1.699V1.793A1.79 1.79 0 0 1 20.489.009a1.79 1.79 0 0 1 1.774 1.784v4.332a1.79 1.79 0 0 1-1.774 1.784Zm-12.842 0c-1.014 0-1.774-.765-1.774-1.699V1.793c0-1.019.76-1.784 1.774-1.784a1.79 1.79 0 0 1 1.774 1.784v4.332a1.79 1.79 0 0 1-1.774 1.784Z"/></svg>