<svg xmlns="http://www.w3.org/2000/svg" width="1920" height="528" viewBox="0 0 1920 528" fill="none"><g clip-path="url(#a)"><path fill="#7DC144" fill-rule="evenodd" d="M0 .1h1920V527H0V.1Z" clip-rule="evenodd"/><g filter="url(#b)" opacity=".8"><path fill="#ADD41C" fill-rule="evenodd" d="M720.413-250c268.67 0 485.457 179.469 485.457 399.83 0 220.362-216.787 398.17-485.457 398.17-268.67 0-487.482-177.808-487.482-398.17C232.931-70.531 451.743-250 720.413-250Z" clip-rule="evenodd"/></g><path fill="#ADD41C" fill-rule="evenodd" d="M1631.95-973.9c394.67 0 713.75 334.447 713.75 745.899S2026.62 516.1 1631.95 516.1 916.48 183.451 916.48-228.001 1237.28-973.9 1631.95-973.9Z" clip-rule="evenodd"/><path fill="#7AB52E" fill-rule="evenodd" d="M971.502-1248c394.668 0 713.748 333.548 713.748 745 0 411.451-319.08 744.1-713.748 744.1-394.667 0-715.471-332.649-715.471-744.1 0-411.452 320.804-745 715.471-745Z" clip-rule="evenodd"/><g filter="url(#c)" opacity=".8"><path fill="#64A327" fill-rule="evenodd" d="M671.472 242.1c228.965 0 413.718 194.312 413.718 432.899S900.437 1106.1 671.472 1106.1c-228.965 0-415.441-192.514-415.441-431.101S442.507 242.1 671.472 242.1Z" clip-rule="evenodd"/></g></g><defs><filter id="b" width="1372.94" height="1198" x="32.931" y="-450" color-interpolation-filters="sRGB" filterUnits="userSpaceOnUse"><feFlood flood-opacity="0" result="BackgroundImageFix"/><feBlend in="SourceGraphic" in2="BackgroundImageFix" result="shape"/><feGaussianBlur result="effect1_foregroundBlur_710_24" stdDeviation="100"/></filter><filter id="c" width="909.156" height="944" x="216.031" y="202.1" color-interpolation-filters="sRGB" filterUnits="userSpaceOnUse"><feFlood flood-opacity="0" result="BackgroundImageFix"/><feBlend in="SourceGraphic" in2="BackgroundImageFix" result="shape"/><feGaussianBlur result="effect1_foregroundBlur_710_24" stdDeviation="20"/></filter><clipPath id="a"><path fill="#fff" d="M0 0h1920v527.9H0z"/></clipPath></defs></svg>