<svg xmlns="http://www.w3.org/2000/svg" width="59" height="56" viewBox="0 0 59 56"><path fill="#FFF" fill-rule="evenodd" d="M58.964 38.1c-.108.537-.457 1.029-.966 1.351L35.997 53.686c-1.147.727-3.244 1.1-4.571.816l-19.454-4.449V36.411h4.526c2.715 0 5.337.362 7.015.968l.06.023.016.007c1.602.58 4.292 1.052 5.996 1.052h10.263c1.233 0 2.244.922 2.303 2.105a2.1 2.1 0 0 1-.041.516c-.211 1.032-1.163 1.781-2.262 1.781H29.601c-.29-.012-3.031-.068-5.31 1.872a.654.654 0 0 0-.068.93.675.675 0 0 0 .942.066c1.938-1.65 4.362-1.553 4.384-1.552a.457.457 0 0 0 .037.001h10.262c1.733 0 3.236-1.193 3.574-2.84.024-.126.041-.247.053-.368l11.999-4.879.014-.007v-.001c1.117-.483 2.588-.146 3.214.733.26.369.354.824.262 1.282ZM43.969 19.249l.038.001c.176 0 .346-.07.472-.193l4.575-4.51v8.452l-8.208 8.09V15.736l2.637 3.266a.676.676 0 0 0 .486.247Zm-2.846-5.287 8.544-8.423 2.941 3.643-8.543 8.422-2.942-3.642Zm5.404-10.067-.002.001H31.844l2.325-3.897h17.496l-2.324 3.896h-2.814Zm-6.624 9.406h-8.558V5.213H48.11l-8.207 8.088Zm-9.587 17.004c.003.002.008.003.012.007.021.013.043.024.065.035.01.006.019.009.029.013.017.008.036.014.053.02a.494.494 0 0 0 .089.023l.033.006a.736.736 0 0 0 .081.006h.014a.718.718 0 0 0 .081-.006l.033-.006a.54.54 0 0 0 .055-.012l.034-.011c.018-.006.037-.012.054-.02l.03-.013c.021-.011.043-.023.064-.036l.014-.008.008-.005v-.002l2.508-1.65v3.372h-5.795v-3.375l2.526 1.654.002.001.01.007Zm-3.873-2.885v4.598H21.86V19.83h15.299l.001.001a.663.663 0 0 0 .577-.331l1.774-3.059v15.577H34.91v-4.602c0-.009-.003-.016-.003-.025a.507.507 0 0 0-.012-.102c-.003-.022-.011-.041-.018-.061-.005-.021-.01-.042-.019-.062a.581.581 0 0 0-.047-.089l-.014-.026-.001-.001a.605.605 0 0 0-.083-.099c-.015-.015-.032-.027-.049-.04-.017-.013-.033-.029-.05-.041-.018-.012-.039-.02-.057-.03-.02-.01-.039-.022-.058-.03-.021-.008-.043-.013-.064-.019a.526.526 0 0 0-.06-.019.73.73 0 0 0-.132-.013l-.03.002a.823.823 0 0 0-.101.01c-.023.005-.045.013-.067.02-.018.005-.039.009-.058.017a.7.7 0 0 0-.098.051l-.018.009-.001.001h-.002l-3.185 2.096-3.199-2.097-.003-.001-.03-.015a.703.703 0 0 0-.086-.045l-.06-.018c-.021-.007-.042-.015-.065-.019a.488.488 0 0 0-.093-.009c-.013-.002-.024-.004-.037-.004h-.001a.63.63 0 0 0-.13.013c-.022.004-.042.012-.062.018-.02.007-.043.011-.063.019-.02.009-.038.02-.057.031-.02.01-.04.019-.058.03-.019.013-.035.028-.052.042-.015.014-.033.025-.048.04a.73.73 0 0 0-.084.1v.002c-.007.01-.011.02-.016.03a.473.473 0 0 0-.045.083c-.009.02-.013.041-.02.062-.006.02-.013.04-.018.061-.006.032-.008.065-.01.097 0 .011-.003.021-.003.03v.005Zm10.328-8.905H19.319l2.261-3.897H39.03l-2.259 3.897ZM30.009 6.15v7.151h-7.212l7.212-7.151ZM18.376 9.334l8.875-8.036 2.537 3.203-8.537 8.464-2.875-3.631ZM9.673 53.925H7.211V32.91h2.462c.531 0 .964.427.964.949v19.116c0 .524-.433.95-.964.95ZM0 31.167h5.875v24.832H0V31.167Z"/></svg>