<svg xmlns="http://www.w3.org/2000/svg" width="52" height="43" viewBox="0 0 52 43"><path fill="#FFF" fill-rule="evenodd" d="M51.509 42.502a1.67 1.67 0 0 1-1.186.497H1.677c-.445 0-.871-.179-1.186-.497a1.71 1.71 0 0 1-.491-1.2V1.697c0-.451.177-.882.491-1.2a1.666 1.666 0 0 1 1.186-.498h48.646c.444 0 .871.179 1.186.498.314.318-.409.749-.409 1.2v39.605c0 .45.723.882.409 1.2Zm-28.864-5.331 3.075-5.375 4.138 5.035 3.411-2.885-4.194-5.036 5.815-2.093-17.78-8.996 5.535 19.35Zm26-33.777H3.355v9.053h45.29V3.394ZM8.387 5.091c1.544 0 2.796 1.267 2.796 2.829 0 1.562-1.252 2.829-2.796 2.829-1.544 0-2.796-1.267-2.796-2.829 0-1.562 1.252-2.829 2.796-2.829Zm7.269 0c1.544 0 2.795 1.267 2.795 2.829 0 1.562-1.251 2.829-2.795 2.829S12.86 9.482 12.86 7.92c0-1.562 1.252-2.829 2.796-2.829Zm7.269 0c1.544 0 2.795 1.267 2.795 2.829 0 1.562-1.251 2.829-2.795 2.829s-2.796-1.267-2.796-2.829c0-1.562 1.252-2.829 2.796-2.829Z"/></svg>