<svg xmlns="http://www.w3.org/2000/svg" width="51" height="53" viewBox="0 0 51 53"><path fill="#FFF" fill-rule="evenodd" d="M49.902 52.1H30.923l-.68-3.235c2.844-2.416 4.81-4.88 5.904-7.336 3.387.446 6.967 1.432 10.659 2.97 2.547 1.078 3.294 3.543 3.294 6.285v1.115c0 .609.407.201-.198.201Zm-9.069-26.015h-.884v-8.162c0-.336-.028-.662-.05-.994h.934c1.521 0 2.758 1.226 2.758 2.736v3.683c0 1.509-1.237 2.737-2.758 2.737Zm-.934-9.158v.002-.002Zm.02 11v.004h.919c.144 0 .283-.031.424-.044-.114.598-.402 1.396-1.087 2.206a6.955 6.955 0 0 1-.667.658c.225-.912.365-1.855.409-2.824h.002Zm-.251-12.841C38.346 8.458 32.497 3.447 25.497 3.447c-7 0-12.849 5.013-14.17 11.639v-.002H10.154v-.828C10.154 7.294 16.891 0 25.498 0c8.533 0 15.345 7.294 15.345 14.256v.83H39.668Zm-28.573 1.842c-.025.332-.051.659-.051.996v8.162h-.877a2.753 2.753 0 0 1-2.758-2.74v-3.683c0-1.509 1.237-2.735 2.757-2.735h.929Zm3.752 24.59h-.001.001Zm5.91 7.347-.68 3.235H1.098C.491 52.1 0 52.506 0 51.899v-1.115a6.826 6.826 0 0 1 4.163-6.283c2.579-1.071 6.496-2.43 10.683-2.983 1.089 2.456 3.061 4.924 5.911 7.347Zm-4.514-8.671a8.486 8.486 0 0 1-.486-2.27 14.403 14.403 0 0 0 8.301 3.741l-2.607 5.355c-2.588-2.295-4.371-4.588-5.208-6.826Zm9.258 2.713 2.868 5.889.692 4.203h-7.122l.692-4.203 2.87-5.889Zm9.168-2.533c-.866 2.184-2.605 4.413-5.122 6.643l-2.61-5.355c3.191-.318 6.066-1.691 8.306-3.747a8.462 8.462 0 0 1-.446 2.129.874.874 0 0 0-.128.33Zm-10.144-5.806c0-.476.749-1.007 1.75-1.007s1.75.529 1.75 1.007c0 .478-.749 1.007-1.75 1.007s-1.75-.531-1.75-1.007Zm5.144.897c2.311-.102 4.335-.392 6.074-.866-2.289 3.198-6.025 5.294-10.248 5.294-6.957 0-12.616-5.668-12.616-12.635v-9.335c0-6.965 5.659-12.633 12.616-12.633 6.958 0 12.617 5.668 12.617 12.633v9.333a12.6 12.6 0 0 1-.997 4.924c-1.682.722-4.077 1.282-7.466 1.438-.484-1.115-1.788-1.9-3.376-1.896-2.013 0-3.589 1.255-3.589 2.851 0 1.595 1.576 2.848 3.589 2.848 1.613 0 2.932-.812 3.396-1.956Zm-.02-1.847Z"/></svg>