<svg xmlns="http://www.w3.org/2000/svg" width="107" height="17" viewBox="0 0 107 17"><path fill="#FFC600" fill-rule="evenodd" d="m102.799 10.946.763 6.053-6.462-2.59-4.662 2.59.762-6.053-4.199-4.453 6.033-1.151L97.1 0l3.866 5.342 6.033 1.151-4.2 4.453Zm-21.237 6.053-6.462-2.59-4.662 2.59.762-6.053-4.199-4.453 6.033-1.151L75.1 0l3.866 5.342 6.033 1.151-4.2 4.453.763 6.053Zm-23 0-6.462-2.59-4.662 2.59.762-6.053-4.199-4.453 6.033-1.151L52.1 0l3.866 5.342 6.033 1.151-4.2 4.453.763 6.053Zm-22 0-6.462-2.59-4.662 2.59.762-6.053-4.199-4.453 6.033-1.151L30.1 0l3.866 5.342 6.033 1.151-4.2 4.453.763 6.053Zm-22 0L8.1 14.409l-4.662 2.59.762-6.053L.001 6.493l6.033-1.151L8.1 0l3.866 5.342 6.033 1.151-4.2 4.453.763 6.053Z"/></svg>